<svg width="420" height="300" viewBox="0 0 420 300" xmlns="http://www.w3.org/2000/svg">
  <rect width="420" height="300" rx="28" fill="#EEFDF9"/>
  <rect x="62" y="86" width="210" height="132" rx="18" fill="#fff" stroke="#B7E4DB" stroke-width="5"/>
  <rect x="79" y="105" width="176" height="28" rx="8" fill="#DFF7F3"/>
  <rect x="82" y="152" width="38" height="38" rx="19" fill="#1363DF"/>
  <rect x="133" y="152" width="38" height="38" rx="19" fill="#0D9488"/>
  <rect x="184" y="152" width="38" height="38" rx="19" fill="#F8B84E"/>
  <path d="M289 114c22-18 56-15 76 7 19 21 18 53-4 72-22 20-56 17-76-6-19-21-18-53 4-73Z" fill="#fff" stroke="#8CCFDD" stroke-width="5"/>
  <path d="M299 184l54-56" stroke="#0D9488" stroke-width="16" stroke-linecap="round"/>
</svg>
